<svg width="200" height="200" viewBox="0 0 200 200" fill="none" xmlns="http://www.w3.org/2000/svg">
<path d="M100 3.45722e-08C155.228 3.45722e-08 200 44.7715 200 100C200 154.282 156.749 198.461 102.829 199.959L127.171 179.729L137.355 171.263L127.93 161.959L100.464 134.85L125.654 119.802L139.342 111.625L127.696 100.735L99.9961 74.834L126.39 56.3252L137.521 48.5186L128.394 38.4434L96.9092 3.6875L99.9951 3.45722e-08C99.9967 -4.32152e-08 99.9984 3.45722e-08 100 3.45722e-08ZM72.1064 12.0566L101.479 44.4805L74.1104 63.6748L62.0029 72.166L72.8037 82.2646L99.6572 107.375L74.8457 122.198L61.5361 130.149L72.5703 141.041L101.644 169.736L73.3291 193.271L70.541 195.588C29.6912 183.013 0 144.975 0 100C0 56.5518 27.7094 19.5767 66.4199 5.7793L72.1064 12.0566Z" fill="#9F9F9F"/>
<circle cx="147" cy="149" r="10" fill="#8E8D8D"/>
<circle cx="62" cy="25" r="8" fill="#8E8D8D"/>
<circle cx="41" cy="66" r="16" fill="#8E8D8D"/>
<circle cx="25" cy="108" r="15" fill="#8E8D8D"/>
<circle cx="68" cy="174" r="14" fill="#8E8D8D"/>
<circle cx="159.5" cy="42.5" r="12.5" fill="#8E8D8D"/>
<circle cx="174.5" cy="110.5" r="17.5" fill="#8E8D8D"/>
</svg>
